# xmcd
#
# Track frame offsets: 
#        150
#        11970
#        25447
#        54490
#        66750
#        80560
#        93963
#        107904
#        118629
#        132185
#        141902
#        155889
#        168448
#        180833
#        196048
#
# Disc length: 2888 seconds
#
# Revision: 1
# Processed by: cddbd v1.5.2PL0 Copyright (c) Steve Scherf et al.
# Submitted via: ExactAudioCopyFreeDBPlugin 1.0
#
DISCID=cb0b460f
DTITLE=Varios - Simply rhythm and blues Disk 1
DYEAR=1900
DGENRE=Blues
TTITLE0=Sam and Dave - Soul man
TTITLE1=Ben E. King - Stand by me
TTITLE2=Ray Charles - What´d I say
TTITLE3=The Drifters - Under the boardwalk
TTITLE4=Eddie Floyd - Knock on wood
TTITLE5=Percy Sledge - When a man loves a woman
TTITLE6=Aaron Neville - Tell it, like it is
TTITLE7=Phil Phillips - Sea of love
TTITLE8=Ben E. King - Spanish Harlem
TTITLE9=The Drifters - There goes my baby
TTITLE10=Jimmy Ruffin - What becomes of the broken hearted?
TTITLE11=The Platters - My prayer
TTITLE12=Sam and Dave - Dock of the bay
TTITLE13=George McRae - Rock your baby
TTITLE14=The Four Tops - My girl
EXTD=
EXTT0=
EXTT1=
EXTT2=
EXTT3=
EXTT4=
EXTT5=
EXTT6=
EXTT7=
EXTT8=
EXTT9=
EXTT10=
EXTT11=
EXTT12=
EXTT13=
EXTT14=
PLAYORDER=
